<mxfile host="65bd71144e">
    <diagram id="MwYgtJxJoKgMqmGKsgiT" name="ページ1">
        <mxGraphModel dx="1186" dy="1887" grid="1" gridSize="10" guides="1" tooltips="1" connect="1" arrows="1" fold="1" page="1" pageScale="1" pageWidth="827" pageHeight="1169" background="#ffffff" math="0" shadow="1">
            <root>
                <mxCell id="0"/>
                <mxCell id="1" parent="0"/>
                <mxCell id="9" style="edgeStyle=none;html=1;entryX=0.008;entryY=0.462;entryDx=0;entryDy=0;entryPerimeter=0;fontColor=#000000;strokeColor=#000000;" edge="1" parent="1" source="3" target="8">
                    <mxGeometry relative="1" as="geometry"/>
                </mxCell>
                <mxCell id="43" style="edgeStyle=none;curved=1;rounded=1;html=1;entryX=-0.019;entryY=0.507;entryDx=0;entryDy=0;entryPerimeter=0;labelBackgroundColor=default;fontFamily=Helvetica;fontSize=12;fontColor=#000000;endArrow=classic;endFill=1;strokeColor=#000000;" edge="1" parent="1" source="3" target="28">
                    <mxGeometry relative="1" as="geometry"/>
                </mxCell>
                <mxCell id="70" style="edgeStyle=none;shape=connector;curved=1;rounded=1;html=1;entryX=-0.04;entryY=0.554;entryDx=0;entryDy=0;entryPerimeter=0;labelBackgroundColor=none;fontFamily=Helvetica;fontSize=12;fontColor=#000000;endArrow=classic;endFill=1;strokeColor=#000000;" edge="1" parent="1" source="3" target="66">
                    <mxGeometry relative="1" as="geometry"/>
                </mxCell>
                <mxCell id="71" value="予約時刻を選択&lt;br&gt;(食堂の開店時間10分おきに選択)" style="edgeLabel;html=1;align=center;verticalAlign=middle;resizable=0;points=[];fontSize=12;fontFamily=Helvetica;fontColor=#000000;labelBackgroundColor=none;" vertex="1" connectable="0" parent="70">
                    <mxGeometry x="0.1788" y="2" relative="1" as="geometry">
                        <mxPoint x="100" y="39" as="offset"/>
                    </mxGeometry>
                </mxCell>
                <mxCell id="83" style="edgeStyle=none;shape=connector;curved=1;rounded=1;html=1;entryX=-0.051;entryY=0.492;entryDx=0;entryDy=0;entryPerimeter=0;labelBackgroundColor=none;fontFamily=Helvetica;fontSize=12;fontColor=#000000;endArrow=classic;endFill=1;strokeColor=#000000;" edge="1" parent="1" source="3" target="78">
                    <mxGeometry relative="1" as="geometry"/>
                </mxCell>
                <mxCell id="103" style="edgeStyle=none;shape=connector;curved=1;rounded=1;html=1;entryX=-0.036;entryY=0.501;entryDx=0;entryDy=0;entryPerimeter=0;labelBackgroundColor=none;fontFamily=Helvetica;fontSize=12;fontColor=#000000;endArrow=classic;endFill=1;strokeColor=#000000;" edge="1" parent="1" source="3" target="89">
                    <mxGeometry relative="1" as="geometry"/>
                </mxCell>
                <mxCell id="156" style="edgeStyle=none;shape=connector;curved=1;rounded=1;html=1;entryX=-0.051;entryY=0.554;entryDx=0;entryDy=0;entryPerimeter=0;labelBackgroundColor=none;fontFamily=Helvetica;fontSize=12;fontColor=#000000;endArrow=classic;endFill=1;strokeColor=#000000;" edge="1" parent="1" source="3" target="137">
                    <mxGeometry relative="1" as="geometry"/>
                </mxCell>
                <mxCell id="3" value="" style="shape=umlActor;verticalLabelPosition=bottom;verticalAlign=top;html=1;strokeColor=#000000;fillColor=none;" vertex="1" parent="1">
                    <mxGeometry x="80" y="120" width="30" height="60" as="geometry"/>
                </mxCell>
                <mxCell id="12" style="edgeStyle=none;html=1;fontColor=#000000;strokeColor=#000000;" edge="1" parent="1" source="8" target="11">
                    <mxGeometry relative="1" as="geometry"/>
                </mxCell>
                <mxCell id="8" value="&lt;font color=&quot;#000000&quot;&gt;ホーム画面&lt;/font&gt;" style="shape=umlBoundary;whiteSpace=wrap;html=1;fillColor=#1ba1e2;fontColor=#ffffff;strokeColor=#006EAF;" vertex="1" parent="1">
                    <mxGeometry x="160" y="-80" width="100" height="80" as="geometry"/>
                </mxCell>
                <mxCell id="10" value="席の予約を押す" style="text;html=1;align=center;verticalAlign=middle;resizable=0;points=[];autosize=1;strokeColor=none;fillColor=none;fontColor=#000000;" vertex="1" parent="1">
                    <mxGeometry x="45" y="80" width="100" height="20" as="geometry"/>
                </mxCell>
                <mxCell id="168" style="edgeStyle=none;shape=connector;curved=1;rounded=1;html=1;labelBackgroundColor=none;fontFamily=Helvetica;fontSize=12;fontColor=#000000;endArrow=classic;endFill=1;strokeColor=#000000;" edge="1" parent="1" source="11" target="13">
                    <mxGeometry relative="1" as="geometry"/>
                </mxCell>
                <mxCell id="11" value="席の予約を押す" style="ellipse;shape=umlControl;whiteSpace=wrap;html=1;fontColor=#000000;strokeColor=#000000;fillColor=none;" vertex="1" parent="1">
                    <mxGeometry x="320" y="-80" width="70" height="80" as="geometry"/>
                </mxCell>
                <mxCell id="42" style="edgeStyle=none;curved=1;rounded=1;html=1;labelBackgroundColor=default;fontFamily=Helvetica;fontSize=12;fontColor=#000000;endArrow=classic;endFill=1;strokeColor=#000000;entryX=0.932;entryY=0.202;entryDx=0;entryDy=0;entryPerimeter=0;" edge="1" parent="1" source="13" target="28">
                    <mxGeometry relative="1" as="geometry">
                        <mxPoint x="430" y="180" as="targetPoint"/>
                    </mxGeometry>
                </mxCell>
                <mxCell id="13" value="席の予約画面を表示する" style="ellipse;shape=umlControl;whiteSpace=wrap;html=1;fontColor=#000000;strokeColor=#000000;fillColor=none;" vertex="1" parent="1">
                    <mxGeometry x="560" y="-80" width="70" height="80" as="geometry"/>
                </mxCell>
                <mxCell id="124" style="edgeStyle=none;shape=connector;curved=1;rounded=1;html=1;entryX=1.01;entryY=0.509;entryDx=0;entryDy=0;entryPerimeter=0;labelBackgroundColor=none;fontFamily=Helvetica;fontSize=12;fontColor=#000000;endArrow=none;endFill=0;strokeColor=#000000;" edge="1" parent="1" target="86">
                    <mxGeometry relative="1" as="geometry">
                        <mxPoint x="760" y="360" as="sourcePoint"/>
                    </mxGeometry>
                </mxCell>
                <mxCell id="127" style="edgeStyle=none;shape=connector;curved=1;rounded=1;html=1;exitX=0;exitY=0.5;exitDx=0;exitDy=0;entryX=1.025;entryY=0.514;entryDx=0;entryDy=0;entryPerimeter=0;labelBackgroundColor=none;fontFamily=Helvetica;fontSize=12;fontColor=#000000;endArrow=none;endFill=0;strokeColor=#000000;" edge="1" parent="1" source="15" target="50">
                    <mxGeometry relative="1" as="geometry"/>
                </mxCell>
                <mxCell id="132" style="edgeStyle=none;shape=connector;curved=1;rounded=1;html=1;exitX=0;exitY=0.5;exitDx=0;exitDy=0;entryX=1.01;entryY=0.506;entryDx=0;entryDy=0;entryPerimeter=0;labelBackgroundColor=none;fontFamily=Helvetica;fontSize=12;fontColor=#000000;endArrow=none;endFill=0;strokeColor=#000000;" edge="1" parent="1" source="15" target="69">
                    <mxGeometry relative="1" as="geometry"/>
                </mxCell>
                <mxCell id="15" value="食堂" style="ellipse;shape=umlEntity;whiteSpace=wrap;html=1;fontColor=#000000;strokeColor=#A50040;fillColor=#d80073;" vertex="1" parent="1">
                    <mxGeometry x="760" y="320" width="80" height="80" as="geometry"/>
                </mxCell>
                <mxCell id="131" style="edgeStyle=none;shape=connector;curved=1;rounded=1;html=1;exitX=0.5;exitY=1;exitDx=0;exitDy=0;entryX=0.994;entryY=0.492;entryDx=0;entryDy=0;entryPerimeter=0;labelBackgroundColor=none;fontFamily=Helvetica;fontSize=12;fontColor=#000000;endArrow=none;endFill=0;strokeColor=#000000;" edge="1" parent="1" source="16" target="69">
                    <mxGeometry relative="1" as="geometry"/>
                </mxCell>
                <mxCell id="204" style="edgeStyle=none;shape=connector;curved=1;rounded=1;html=1;labelBackgroundColor=none;fontFamily=Helvetica;fontSize=12;fontColor=#000000;endArrow=none;endFill=0;strokeColor=#000000;" edge="1" parent="1" target="86">
                    <mxGeometry relative="1" as="geometry">
                        <mxPoint x="760" y="840" as="sourcePoint"/>
                    </mxGeometry>
                </mxCell>
                <mxCell id="205" style="edgeStyle=none;shape=connector;curved=1;rounded=1;html=1;exitX=0;exitY=0.5;exitDx=0;exitDy=0;labelBackgroundColor=none;fontFamily=Helvetica;fontSize=12;fontColor=#000000;endArrow=none;endFill=0;strokeColor=#000000;" edge="1" parent="1" source="16" target="50">
                    <mxGeometry relative="1" as="geometry"/>
                </mxCell>
                <mxCell id="206" style="edgeStyle=none;shape=connector;curved=1;rounded=1;html=1;exitX=0;exitY=0.5;exitDx=0;exitDy=0;entryX=0.918;entryY=0.841;entryDx=0;entryDy=0;entryPerimeter=0;labelBackgroundColor=none;fontFamily=Helvetica;fontSize=12;fontColor=#000000;endArrow=none;endFill=0;strokeColor=#000000;" edge="1" parent="1" source="16" target="193">
                    <mxGeometry relative="1" as="geometry"/>
                </mxCell>
                <mxCell id="210" style="edgeStyle=none;shape=connector;curved=1;rounded=1;html=1;exitX=0;exitY=0.5;exitDx=0;exitDy=0;entryX=0.806;entryY=0.201;entryDx=0;entryDy=0;entryPerimeter=0;labelBackgroundColor=none;fontFamily=Helvetica;fontSize=12;fontColor=#000000;endArrow=none;endFill=0;strokeColor=#000000;" edge="1" parent="1" source="16" target="138">
                    <mxGeometry relative="1" as="geometry"/>
                </mxCell>
                <mxCell id="16" value="&lt;font color=&quot;#000000&quot;&gt;予約台帳&lt;/font&gt;" style="ellipse;shape=umlEntity;whiteSpace=wrap;html=1;fontFamily=Helvetica;fontSize=12;fontColor=#ffffff;strokeColor=#A50040;fillColor=#d80073;" vertex="1" parent="1">
                    <mxGeometry x="760" y="800" width="80" height="80" as="geometry"/>
                </mxCell>
                <mxCell id="187" style="edgeStyle=none;shape=connector;curved=1;rounded=1;html=1;entryX=0.021;entryY=0.509;entryDx=0;entryDy=0;entryPerimeter=0;labelBackgroundColor=none;fontFamily=Helvetica;fontSize=12;fontColor=#000000;endArrow=classic;endFill=1;strokeColor=#000000;" edge="1" parent="1" source="28" target="169">
                    <mxGeometry relative="1" as="geometry"/>
                </mxCell>
                <mxCell id="28" value="&lt;font color=&quot;#000000&quot;&gt;席の予約画面&lt;/font&gt;" style="shape=umlBoundary;whiteSpace=wrap;html=1;fillColor=#1ba1e2;fontColor=#ffffff;strokeColor=#006EAF;" vertex="1" parent="1">
                    <mxGeometry x="160" y="80" width="100" height="80" as="geometry"/>
                </mxCell>
                <mxCell id="45" value="予約人数を選択&lt;br&gt;(1~6人まで)" style="text;html=1;align=center;verticalAlign=middle;resizable=0;points=[];autosize=1;strokeColor=none;fillColor=none;fontColor=#000000;" vertex="1" parent="1">
                    <mxGeometry x="110" y="170" width="100" height="30" as="geometry"/>
                </mxCell>
                <mxCell id="63" style="edgeStyle=none;shape=connector;curved=1;rounded=1;html=1;entryX=0.917;entryY=0.238;entryDx=0;entryDy=0;entryPerimeter=0;labelBackgroundColor=none;fontFamily=Helvetica;fontSize=12;fontColor=#000000;endArrow=classic;endFill=1;strokeColor=#000000;" edge="1" parent="1" source="50" target="62">
                    <mxGeometry relative="1" as="geometry"/>
                </mxCell>
                <mxCell id="50" value="席の予約に空きがある時間帯を取得" style="ellipse;shape=umlControl;whiteSpace=wrap;html=1;fontColor=#000000;strokeColor=#000000;fillColor=none;" vertex="1" parent="1">
                    <mxGeometry x="560" y="440" width="70" height="80" as="geometry"/>
                </mxCell>
                <mxCell id="67" style="edgeStyle=none;shape=connector;curved=1;rounded=1;html=1;labelBackgroundColor=none;fontFamily=Helvetica;fontSize=12;fontColor=#000000;endArrow=classic;endFill=1;strokeColor=#000000;" edge="1" parent="1" source="62" target="64">
                    <mxGeometry relative="1" as="geometry"/>
                </mxCell>
                <mxCell id="62" value="残席が表示された時間帯選択フォーム" style="ellipse;shape=umlControl;whiteSpace=wrap;html=1;labelBackgroundColor=none;fontFamily=Helvetica;fontSize=12;fontColor=#000000;fillColor=none;gradientColor=none;strokeColor=#000000;" vertex="1" parent="1">
                    <mxGeometry x="440" y="560" width="70" height="80" as="geometry"/>
                </mxCell>
                <mxCell id="68" style="edgeStyle=none;shape=connector;curved=1;rounded=1;html=1;entryX=0.889;entryY=0.154;entryDx=0;entryDy=0;entryPerimeter=0;labelBackgroundColor=none;fontFamily=Helvetica;fontSize=12;fontColor=#000000;endArrow=classic;endFill=1;strokeColor=#000000;" edge="1" parent="1" source="64" target="66">
                    <mxGeometry relative="1" as="geometry"/>
                </mxCell>
                <mxCell id="64" value="カレンダーで日程が選択された席の予約画面" style="ellipse;shape=umlControl;whiteSpace=wrap;html=1;labelBackgroundColor=none;fontFamily=Helvetica;fontSize=12;fontColor=#000000;fillColor=none;gradientColor=none;strokeColor=#000000;" vertex="1" parent="1">
                    <mxGeometry x="320" y="560" width="70" height="80" as="geometry"/>
                </mxCell>
                <mxCell id="178" style="edgeStyle=none;shape=connector;curved=1;rounded=1;html=1;entryX=-0.023;entryY=0.492;entryDx=0;entryDy=0;entryPerimeter=0;labelBackgroundColor=none;fontFamily=Helvetica;fontSize=12;fontColor=#000000;endArrow=classic;endFill=1;strokeColor=#000000;" edge="1" parent="1" source="66" target="176">
                    <mxGeometry relative="1" as="geometry"/>
                </mxCell>
                <mxCell id="66" value="&lt;font color=&quot;#000000&quot;&gt;席の予約画面&lt;br&gt;(日付選択済み)&lt;br&gt;&lt;/font&gt;" style="shape=umlBoundary;whiteSpace=wrap;html=1;fillColor=#1ba1e2;fontColor=#ffffff;strokeColor=#006EAF;" vertex="1" parent="1">
                    <mxGeometry x="160.01" y="680" width="100" height="80" as="geometry"/>
                </mxCell>
                <mxCell id="80" style="edgeStyle=none;shape=connector;curved=1;rounded=1;html=1;entryX=0.818;entryY=0.256;entryDx=0;entryDy=0;entryPerimeter=0;labelBackgroundColor=none;fontFamily=Helvetica;fontSize=12;fontColor=#000000;endArrow=classic;endFill=1;strokeColor=#000000;" edge="1" parent="1" source="69" target="79">
                    <mxGeometry relative="1" as="geometry"/>
                </mxCell>
                <mxCell id="69" value="予約できる滞在時間を計算" style="ellipse;shape=umlControl;whiteSpace=wrap;html=1;labelBackgroundColor=none;fontFamily=Helvetica;fontSize=12;fontColor=#000000;fillColor=none;gradientColor=none;strokeColor=#000000;" vertex="1" parent="1">
                    <mxGeometry x="560" y="680" width="70" height="80" as="geometry"/>
                </mxCell>
                <mxCell id="78" value="&lt;font color=&quot;#000000&quot;&gt;席の予約画面&lt;br&gt;(日時選択済み)&lt;br&gt;&lt;/font&gt;" style="shape=umlBoundary;whiteSpace=wrap;html=1;fillColor=#1ba1e2;fontColor=#ffffff;strokeColor=#006EAF;" vertex="1" parent="1">
                    <mxGeometry x="160.01" y="920" width="100" height="80" as="geometry"/>
                </mxCell>
                <mxCell id="119" style="edgeStyle=none;shape=connector;curved=1;rounded=1;html=1;labelBackgroundColor=none;fontFamily=Helvetica;fontSize=12;fontColor=#000000;endArrow=classic;endFill=1;strokeColor=#000000;" edge="1" parent="1" source="79" target="81">
                    <mxGeometry relative="1" as="geometry"/>
                </mxCell>
                <mxCell id="79" value="残席が表示された滞在時間選択フォーム" style="ellipse;shape=umlControl;whiteSpace=wrap;html=1;labelBackgroundColor=none;fontFamily=Helvetica;fontSize=12;fontColor=#000000;fillColor=none;gradientColor=none;strokeColor=#000000;" vertex="1" parent="1">
                    <mxGeometry x="440" y="800" width="70" height="80" as="geometry"/>
                </mxCell>
                <mxCell id="82" style="edgeStyle=none;shape=connector;curved=1;rounded=1;html=1;labelBackgroundColor=none;fontFamily=Helvetica;fontSize=12;fontColor=#000000;endArrow=classic;endFill=1;strokeColor=#000000;entryX=0.91;entryY=0.203;entryDx=0;entryDy=0;entryPerimeter=0;" edge="1" parent="1" source="81" target="78">
                    <mxGeometry relative="1" as="geometry">
                        <mxPoint x="250" y="930" as="targetPoint"/>
                    </mxGeometry>
                </mxCell>
                <mxCell id="81" value="日時が選択された席の予約画面" style="ellipse;shape=umlControl;whiteSpace=wrap;html=1;labelBackgroundColor=none;fontFamily=Helvetica;fontSize=12;fontColor=#000000;fillColor=none;gradientColor=none;strokeColor=#000000;" vertex="1" parent="1">
                    <mxGeometry x="320" y="800" width="70" height="80" as="geometry"/>
                </mxCell>
                <mxCell id="84" value="滞在時間を選択&lt;br&gt;(10，20，30分)" style="edgeLabel;html=1;align=center;verticalAlign=middle;resizable=0;points=[];fontSize=12;fontFamily=Helvetica;fontColor=#000000;labelBackgroundColor=none;" vertex="1" connectable="0" parent="1">
                    <mxGeometry x="200.0029845864987" y="850.0045061589722" as="geometry"/>
                </mxCell>
                <mxCell id="100" style="edgeStyle=none;shape=connector;curved=1;rounded=1;html=1;entryX=0.918;entryY=0.278;entryDx=0;entryDy=0;entryPerimeter=0;labelBackgroundColor=none;fontFamily=Helvetica;fontSize=12;fontColor=#000000;endArrow=classic;endFill=1;strokeColor=#000000;" edge="1" parent="1" source="86" target="88">
                    <mxGeometry relative="1" as="geometry"/>
                </mxCell>
                <mxCell id="86" value="2日後までのうち人数分空きがある日付を計算" style="ellipse;shape=umlControl;whiteSpace=wrap;html=1;fontColor=#000000;strokeColor=#000000;fillColor=none;" vertex="1" parent="1">
                    <mxGeometry x="560" y="80" width="70" height="80" as="geometry"/>
                </mxCell>
                <mxCell id="101" style="edgeStyle=none;shape=connector;curved=1;rounded=1;html=1;labelBackgroundColor=none;fontFamily=Helvetica;fontSize=12;fontColor=#000000;endArrow=classic;endFill=1;strokeColor=#000000;" edge="1" parent="1" source="88" target="99">
                    <mxGeometry relative="1" as="geometry"/>
                </mxCell>
                <mxCell id="88" value="残席が表示されたカレンダーフォーム" style="ellipse;shape=umlControl;whiteSpace=wrap;html=1;labelBackgroundColor=none;fontFamily=Helvetica;fontSize=12;fontColor=#000000;fillColor=none;gradientColor=none;strokeColor=#000000;" vertex="1" parent="1">
                    <mxGeometry x="440" y="200" width="70" height="80" as="geometry"/>
                </mxCell>
                <mxCell id="174" style="edgeStyle=none;shape=connector;curved=1;rounded=1;html=1;labelBackgroundColor=none;fontFamily=Helvetica;fontSize=12;fontColor=#000000;endArrow=classic;endFill=1;strokeColor=#000000;" edge="1" parent="1" source="89" target="172">
                    <mxGeometry relative="1" as="geometry"/>
                </mxCell>
                <mxCell id="89" value="&lt;font color=&quot;#000000&quot;&gt;席の予約画面&lt;br&gt;(人数指定済み)&lt;br&gt;&lt;/font&gt;" style="shape=umlBoundary;whiteSpace=wrap;html=1;fillColor=#1ba1e2;fontColor=#ffffff;strokeColor=#006EAF;" vertex="1" parent="1">
                    <mxGeometry x="160.01" y="440" width="100" height="80" as="geometry"/>
                </mxCell>
                <mxCell id="102" style="edgeStyle=none;shape=connector;curved=1;rounded=1;html=1;entryX=0.91;entryY=0.167;entryDx=0;entryDy=0;entryPerimeter=0;labelBackgroundColor=none;fontFamily=Helvetica;fontSize=12;fontColor=#000000;endArrow=classic;endFill=1;strokeColor=#000000;" edge="1" parent="1" source="99" target="89">
                    <mxGeometry relative="1" as="geometry"/>
                </mxCell>
                <mxCell id="99" value="人数が選択された席の予約画面" style="ellipse;shape=umlControl;whiteSpace=wrap;html=1;labelBackgroundColor=none;fontFamily=Helvetica;fontSize=12;fontColor=#000000;fillColor=none;gradientColor=none;strokeColor=#000000;" vertex="1" parent="1">
                    <mxGeometry x="320" y="200" width="70" height="80" as="geometry"/>
                </mxCell>
                <mxCell id="106" value="利用者" style="text;html=1;align=center;verticalAlign=middle;resizable=0;points=[];autosize=1;strokeColor=none;fillColor=none;fontColor=#000000;" vertex="1" parent="1">
                    <mxGeometry x="20" y="140" width="50" height="20" as="geometry"/>
                </mxCell>
                <mxCell id="108" value="予約日を選択&lt;br&gt;(2日後までから選択)" style="edgeLabel;html=1;align=center;verticalAlign=middle;resizable=0;points=[];fontSize=12;fontFamily=Helvetica;fontColor=#000000;labelBackgroundColor=none;" vertex="1" connectable="0" parent="1">
                    <mxGeometry x="200.00658895469383" y="329.99892743596644" as="geometry">
                        <mxPoint x="3" as="offset"/>
                    </mxGeometry>
                </mxCell>
                <mxCell id="133" value="座席数を取得" style="edgeLabel;html=1;align=center;verticalAlign=middle;resizable=0;points=[];fontSize=12;fontFamily=Helvetica;fontColor=#000000;labelBackgroundColor=none;" vertex="1" connectable="0" parent="1">
                    <mxGeometry x="730.0044022278113" y="209.99708708930234" as="geometry"/>
                </mxCell>
                <mxCell id="134" value="座席数を取得" style="edgeLabel;html=1;align=center;verticalAlign=middle;resizable=0;points=[];fontSize=12;fontFamily=Helvetica;fontColor=#000000;labelBackgroundColor=none;" vertex="1" connectable="0" parent="1">
                    <mxGeometry x="719.9944022278113" y="419.99708708930234" as="geometry"/>
                </mxCell>
                <mxCell id="135" value="日時で予約を検索" style="edgeLabel;html=1;align=center;verticalAlign=middle;resizable=0;points=[];fontSize=12;fontFamily=Helvetica;fontColor=#000000;labelBackgroundColor=none;" vertex="1" connectable="0" parent="1">
                    <mxGeometry x="549.9953544817176" y="650.0001771974858" as="geometry"/>
                </mxCell>
                <mxCell id="136" value="日時で予約を検索" style="edgeLabel;html=1;align=center;verticalAlign=middle;resizable=0;points=[];fontSize=12;fontFamily=Helvetica;fontColor=#000000;labelBackgroundColor=none;" vertex="1" connectable="0" parent="1">
                    <mxGeometry x="719.9953544817176" y="780.0001771974858" as="geometry"/>
                </mxCell>
                <mxCell id="222" style="edgeStyle=none;shape=connector;curved=1;rounded=1;html=1;entryX=-0.004;entryY=0.57;entryDx=0;entryDy=0;entryPerimeter=0;labelBackgroundColor=none;fontFamily=Helvetica;fontSize=12;fontColor=#000000;endArrow=classic;endFill=1;strokeColor=#000000;" edge="1" parent="1" source="137" target="138">
                    <mxGeometry relative="1" as="geometry"/>
                </mxCell>
                <mxCell id="137" value="&lt;font color=&quot;#000000&quot;&gt;席の予約確認画面&lt;br&gt;&lt;/font&gt;" style="shape=umlBoundary;whiteSpace=wrap;html=1;fillColor=#1ba1e2;fontColor=#ffffff;strokeColor=#006EAF;" vertex="1" parent="1">
                    <mxGeometry x="160" y="1080" width="100" height="80" as="geometry"/>
                </mxCell>
                <mxCell id="146" style="edgeStyle=none;shape=connector;curved=1;rounded=1;html=1;entryX=0.956;entryY=0.826;entryDx=0;entryDy=0;entryPerimeter=0;labelBackgroundColor=none;fontFamily=Helvetica;fontSize=12;fontColor=#000000;endArrow=classic;endFill=1;strokeColor=#000000;exitX=0.184;exitY=0.202;exitDx=0;exitDy=0;exitPerimeter=0;" edge="1" parent="1" source="138" target="142">
                    <mxGeometry relative="1" as="geometry"/>
                </mxCell>
                <mxCell id="217" style="edgeStyle=none;shape=connector;curved=1;rounded=1;html=1;entryX=0.78;entryY=0.199;entryDx=0;entryDy=0;entryPerimeter=0;labelBackgroundColor=none;fontFamily=Helvetica;fontSize=12;fontColor=#000000;endArrow=classic;endFill=1;strokeColor=#000000;" edge="1" parent="1" source="138" target="220">
                    <mxGeometry relative="1" as="geometry"/>
                </mxCell>
                <mxCell id="138" value="予約ができるかどうか確認する" style="ellipse;shape=umlControl;whiteSpace=wrap;html=1;labelBackgroundColor=none;fontFamily=Helvetica;fontSize=12;fontColor=#000000;fillColor=none;gradientColor=none;strokeColor=#000000;" vertex="1" parent="1">
                    <mxGeometry x="560" y="1200" width="70" height="80" as="geometry"/>
                </mxCell>
                <mxCell id="155" style="edgeStyle=none;shape=connector;curved=1;rounded=1;html=1;labelBackgroundColor=none;fontFamily=Helvetica;fontSize=12;fontColor=#000000;endArrow=classic;endFill=1;strokeColor=#000000;" edge="1" parent="1" source="142" target="137">
                    <mxGeometry relative="1" as="geometry"/>
                </mxCell>
                <mxCell id="142" value="予約できないエラー" style="ellipse;shape=umlControl;whiteSpace=wrap;html=1;labelBackgroundColor=none;fontFamily=Helvetica;fontSize=12;fillColor=#647687;fontColor=#000000;strokeColor=#314354;" vertex="1" parent="1">
                    <mxGeometry x="319" y="1080" width="70" height="80" as="geometry"/>
                </mxCell>
                <mxCell id="148" value="予約できない" style="edgeLabel;html=1;align=center;verticalAlign=middle;resizable=0;points=[];fontSize=12;fontFamily=Helvetica;fontColor=#000000;labelBackgroundColor=none;" vertex="1" connectable="0" parent="1">
                    <mxGeometry x="439.99535448171764" y="1140.0001771974858" as="geometry"/>
                </mxCell>
                <mxCell id="153" style="edgeStyle=none;shape=connector;curved=1;rounded=1;html=1;entryX=0.953;entryY=0.247;entryDx=0;entryDy=0;entryPerimeter=0;labelBackgroundColor=none;fontFamily=Helvetica;fontSize=12;fontColor=#000000;endArrow=classic;endFill=1;strokeColor=#000000;exitX=0.571;exitY=1;exitDx=0;exitDy=0;exitPerimeter=0;" edge="1" parent="1" source="151" target="137">
                    <mxGeometry relative="1" as="geometry"/>
                </mxCell>
                <mxCell id="151" value="予約確認画面を表示" style="ellipse;shape=umlControl;whiteSpace=wrap;html=1;labelBackgroundColor=none;fontFamily=Helvetica;fontSize=12;fontColor=#000000;fillColor=none;gradientColor=none;strokeColor=#000000;" vertex="1" parent="1">
                    <mxGeometry x="560" y="920" width="70" height="80" as="geometry"/>
                </mxCell>
                <mxCell id="157" value="予約を確認して&lt;br&gt;予約ボタンを押す" style="edgeLabel;html=1;align=center;verticalAlign=middle;resizable=0;points=[];fontSize=12;fontFamily=Helvetica;fontColor=#000000;labelBackgroundColor=none;" vertex="1" connectable="0" parent="1">
                    <mxGeometry x="220.0029845864987" y="1050.0045061589722" as="geometry">
                        <mxPoint x="-14" y="-2" as="offset"/>
                    </mxGeometry>
                </mxCell>
                <mxCell id="163" style="edgeStyle=none;shape=connector;curved=1;rounded=1;html=1;labelBackgroundColor=none;fontFamily=Helvetica;fontSize=12;fontColor=#000000;endArrow=classic;endFill=1;strokeColor=#000000;" edge="1" parent="1" source="158" target="162">
                    <mxGeometry relative="1" as="geometry"/>
                </mxCell>
                <mxCell id="158" value="予約完了画面を表示" style="ellipse;shape=umlControl;whiteSpace=wrap;html=1;labelBackgroundColor=none;fontFamily=Helvetica;fontSize=12;fontColor=#000000;fillColor=none;gradientColor=none;strokeColor=#000000;" vertex="1" parent="1">
                    <mxGeometry x="319" y="1320" width="70" height="80" as="geometry"/>
                </mxCell>
                <mxCell id="160" value="予約できる" style="edgeLabel;html=1;align=center;verticalAlign=middle;resizable=0;points=[];fontSize=12;fontFamily=Helvetica;fontColor=#000000;labelBackgroundColor=none;" vertex="1" connectable="0" parent="1">
                    <mxGeometry x="559.9953544817176" y="1310.0001771974858" as="geometry"/>
                </mxCell>
                <mxCell id="162" value="&lt;font color=&quot;#000000&quot;&gt;席の予約完了画面&lt;br&gt;&lt;/font&gt;" style="shape=umlBoundary;whiteSpace=wrap;html=1;fillColor=#1ba1e2;fontColor=#ffffff;strokeColor=#006EAF;" vertex="1" parent="1">
                    <mxGeometry x="160.01" y="1320" width="100" height="80" as="geometry"/>
                </mxCell>
                <mxCell id="165" value="日時で予約を検索" style="edgeLabel;html=1;align=center;verticalAlign=middle;resizable=0;points=[];fontSize=12;fontFamily=Helvetica;fontColor=#000000;labelBackgroundColor=none;" vertex="1" connectable="0" parent="1">
                    <mxGeometry x="739.9953544817176" y="1050.0001771974858" as="geometry"/>
                </mxCell>
                <mxCell id="171" style="edgeStyle=none;shape=connector;curved=1;rounded=1;html=1;entryX=-0.003;entryY=0.509;entryDx=0;entryDy=0;entryPerimeter=0;labelBackgroundColor=none;fontFamily=Helvetica;fontSize=12;fontColor=#000000;endArrow=classic;endFill=1;strokeColor=#000000;" edge="1" parent="1" source="169" target="86">
                    <mxGeometry relative="1" as="geometry"/>
                </mxCell>
                <mxCell id="169" value="予約人数を選択し，確定ボタンを押す" style="ellipse;shape=umlControl;whiteSpace=wrap;html=1;fontColor=#000000;strokeColor=#000000;fillColor=none;" vertex="1" parent="1">
                    <mxGeometry x="319" y="80" width="70" height="80" as="geometry"/>
                </mxCell>
                <mxCell id="195" style="edgeStyle=none;shape=connector;curved=1;rounded=1;html=1;entryX=0.031;entryY=0.507;entryDx=0;entryDy=0;entryPerimeter=0;labelBackgroundColor=none;fontFamily=Helvetica;fontSize=12;fontColor=#000000;endArrow=classic;endFill=1;strokeColor=#000000;" edge="1" parent="1" source="172" target="193">
                    <mxGeometry relative="1" as="geometry"/>
                </mxCell>
                <mxCell id="172" value="予約日を選択し，確定ボタンを押す" style="ellipse;shape=umlControl;whiteSpace=wrap;html=1;fontColor=#000000;strokeColor=#000000;fillColor=none;" vertex="1" parent="1">
                    <mxGeometry x="319" y="440" width="70" height="80" as="geometry"/>
                </mxCell>
                <mxCell id="182" style="edgeStyle=none;shape=connector;curved=1;rounded=1;html=1;entryX=0;entryY=0.5;entryDx=0;entryDy=0;entryPerimeter=0;labelBackgroundColor=none;fontFamily=Helvetica;fontSize=12;fontColor=#000000;endArrow=classic;endFill=1;strokeColor=#000000;" edge="1" parent="1" source="176" target="69">
                    <mxGeometry relative="1" as="geometry"/>
                </mxCell>
                <mxCell id="176" value="予約日時を選択し，確定ボタンを押す" style="ellipse;shape=umlControl;whiteSpace=wrap;html=1;fontColor=#000000;strokeColor=#000000;fillColor=none;" vertex="1" parent="1">
                    <mxGeometry x="320" y="680" width="70" height="80" as="geometry"/>
                </mxCell>
                <mxCell id="185" style="edgeStyle=none;shape=connector;curved=1;rounded=1;html=1;entryX=0;entryY=0.5;entryDx=0;entryDy=0;entryPerimeter=0;labelBackgroundColor=none;fontFamily=Helvetica;fontSize=12;fontColor=#000000;endArrow=classic;endFill=1;strokeColor=#000000;" edge="1" parent="1" source="183" target="215">
                    <mxGeometry relative="1" as="geometry"/>
                </mxCell>
                <mxCell id="183" value="滞在時間を選択し，確定ボタンを押す" style="ellipse;shape=umlControl;whiteSpace=wrap;html=1;fontColor=#000000;strokeColor=#000000;fillColor=none;" vertex="1" parent="1">
                    <mxGeometry x="319" y="920" width="70" height="80" as="geometry"/>
                </mxCell>
                <mxCell id="184" value="" style="edgeStyle=none;shape=connector;curved=1;rounded=1;html=1;entryX=-0.043;entryY=0.484;entryDx=0;entryDy=0;entryPerimeter=0;labelBackgroundColor=none;fontFamily=Helvetica;fontSize=12;fontColor=#000000;endArrow=classic;endFill=1;strokeColor=#000000;" edge="1" parent="1" source="78" target="183">
                    <mxGeometry relative="1" as="geometry">
                        <mxPoint x="260.01" y="959.7180368314387" as="sourcePoint"/>
                        <mxPoint x="436.99" y="958.7199999999998" as="targetPoint"/>
                    </mxGeometry>
                </mxCell>
                <mxCell id="194" style="edgeStyle=none;shape=connector;curved=1;rounded=1;html=1;entryX=0;entryY=0.5;entryDx=0;entryDy=0;entryPerimeter=0;labelBackgroundColor=none;fontFamily=Helvetica;fontSize=12;fontColor=#000000;endArrow=classic;endFill=1;strokeColor=#000000;" edge="1" parent="1" source="193" target="50">
                    <mxGeometry relative="1" as="geometry"/>
                </mxCell>
                <mxCell id="197" style="edgeStyle=none;shape=connector;curved=1;rounded=1;html=1;labelBackgroundColor=none;fontFamily=Helvetica;fontSize=12;fontColor=#000000;endArrow=classic;endFill=1;strokeColor=#000000;exitX=0.858;exitY=0.246;exitDx=0;exitDy=0;exitPerimeter=0;" edge="1" parent="1" source="193" target="196">
                    <mxGeometry relative="1" as="geometry"/>
                </mxCell>
                <mxCell id="193" value="その日にすでに予約を取っていないか確認" style="ellipse;shape=umlControl;whiteSpace=wrap;html=1;labelBackgroundColor=none;fontFamily=Helvetica;fontSize=12;fontColor=#000000;fillColor=none;gradientColor=none;strokeColor=#000000;" vertex="1" parent="1">
                    <mxGeometry x="440" y="440" width="70" height="80" as="geometry"/>
                </mxCell>
                <mxCell id="199" style="edgeStyle=none;shape=connector;curved=1;rounded=1;html=1;entryX=1.005;entryY=0.348;entryDx=0;entryDy=0;entryPerimeter=0;labelBackgroundColor=none;fontFamily=Helvetica;fontSize=12;fontColor=#000000;endArrow=classic;endFill=1;strokeColor=#000000;" edge="1" parent="1" source="196" target="89">
                    <mxGeometry relative="1" as="geometry"/>
                </mxCell>
                <mxCell id="196" value="既に予約してるエラー" style="ellipse;shape=umlControl;whiteSpace=wrap;html=1;labelBackgroundColor=none;fontFamily=Helvetica;fontSize=12;fillColor=#647687;fontColor=#000000;strokeColor=#314354;" vertex="1" parent="1">
                    <mxGeometry x="560" y="320" width="70" height="80" as="geometry"/>
                </mxCell>
                <mxCell id="208" value="既に予約している" style="edgeLabel;html=1;align=center;verticalAlign=middle;resizable=0;points=[];fontSize=12;fontFamily=Helvetica;fontColor=#000000;labelBackgroundColor=none;" vertex="1" connectable="0" parent="1">
                    <mxGeometry x="459.99535448171764" y="430.00017719748575" as="geometry"/>
                </mxCell>
                <mxCell id="209" value="予約なし" style="edgeLabel;html=1;align=center;verticalAlign=middle;resizable=0;points=[];fontSize=12;fontFamily=Helvetica;fontColor=#000000;labelBackgroundColor=none;" vertex="1" connectable="0" parent="1">
                    <mxGeometry x="529.9953544817176" y="460.00017719748575" as="geometry"/>
                </mxCell>
                <mxCell id="224" style="edgeStyle=none;shape=connector;curved=1;rounded=1;html=1;exitX=0.5;exitY=1;exitDx=0;exitDy=0;labelBackgroundColor=none;fontFamily=Helvetica;fontSize=12;fontColor=#000000;endArrow=none;endFill=0;strokeColor=#000000;" edge="1" parent="1" source="213">
                    <mxGeometry relative="1" as="geometry">
                        <mxPoint x="600" y="1200" as="targetPoint"/>
                    </mxGeometry>
                </mxCell>
                <mxCell id="213" value="&lt;font color=&quot;#000000&quot;&gt;予約&lt;/font&gt;" style="ellipse;shape=umlEntity;whiteSpace=wrap;html=1;fontFamily=Helvetica;fontSize=12;fontColor=#ffffff;strokeColor=#A50040;fillColor=#d80073;" vertex="1" parent="1">
                    <mxGeometry x="560" y="1080" width="80" height="80" as="geometry"/>
                </mxCell>
                <mxCell id="216" style="edgeStyle=none;shape=connector;curved=1;rounded=1;html=1;entryX=0.008;entryY=0.511;entryDx=0;entryDy=0;entryPerimeter=0;labelBackgroundColor=none;fontFamily=Helvetica;fontSize=12;fontColor=#000000;endArrow=classic;endFill=1;strokeColor=#000000;" edge="1" parent="1" source="215" target="151">
                    <mxGeometry relative="1" as="geometry"/>
                </mxCell>
                <mxCell id="219" style="edgeStyle=none;shape=connector;curved=1;rounded=1;html=1;entryX=0;entryY=0;entryDx=0;entryDy=0;labelBackgroundColor=none;fontFamily=Helvetica;fontSize=12;fontColor=#000000;endArrow=none;endFill=0;strokeColor=#000000;" edge="1" parent="1" source="215" target="213">
                    <mxGeometry relative="1" as="geometry"/>
                </mxCell>
                <mxCell id="215" value="予約を作成する" style="ellipse;shape=umlControl;whiteSpace=wrap;html=1;fontColor=#000000;strokeColor=#000000;fillColor=none;" vertex="1" parent="1">
                    <mxGeometry x="440" y="920" width="70" height="80" as="geometry"/>
                </mxCell>
                <mxCell id="221" style="edgeStyle=none;shape=connector;curved=1;rounded=1;html=1;labelBackgroundColor=none;fontFamily=Helvetica;fontSize=12;fontColor=#000000;endArrow=classic;endFill=1;strokeColor=#000000;" edge="1" parent="1" source="220" target="158">
                    <mxGeometry relative="1" as="geometry"/>
                </mxCell>
                <mxCell id="220" value="予約を登録する" style="ellipse;shape=umlControl;whiteSpace=wrap;html=1;labelBackgroundColor=none;fontFamily=Helvetica;fontSize=12;fontColor=#000000;fillColor=none;gradientColor=none;strokeColor=#000000;" vertex="1" parent="1">
                    <mxGeometry x="440" y="1320" width="70" height="80" as="geometry"/>
                </mxCell>
            </root>
        </mxGraphModel>
    </diagram>
</mxfile>